<svg width="552px" height="222px" viewBox="0 0 25 10" fill="none" xmlns="http://www.w3.org/2000/svg">
<path d="M6.36914 5.8418L8.05078 6.375C7.79297 7.3125 7.36328 8.00977 6.76172 8.4668C6.16406 8.91992 5.4043 9.14648 4.48242 9.14648C3.3418 9.14648 2.4043 8.75781 1.66992 7.98047C0.935547 7.19922 0.568359 6.13281 0.568359 4.78125C0.568359 3.35156 0.9375 2.24219 1.67578 1.45312C2.41406 0.660156 3.38477 0.263672 4.58789 0.263672C5.63867 0.263672 6.49219 0.574219 7.14844 1.19531C7.53906 1.5625 7.83203 2.08984 8.02734 2.77734L6.31055 3.1875C6.20898 2.74219 5.99609 2.39062 5.67188 2.13281C5.35156 1.875 4.96094 1.74609 4.5 1.74609C3.86328 1.74609 3.3457 1.97461 2.94727 2.43164C2.55273 2.88867 2.35547 3.62891 2.35547 4.65234C2.35547 5.73828 2.55078 6.51172 2.94141 6.97266C3.33203 7.43359 3.83984 7.66406 4.46484 7.66406C4.92578 7.66406 5.32227 7.51758 5.6543 7.22461C5.98633 6.93164 6.22461 6.4707 6.36914 5.8418ZM15.041 5.8418L16.7227 6.375C16.4648 7.3125 16.0352 8.00977 15.4336 8.4668C14.8359 8.91992 14.0762 9.14648 13.1543 9.14648C12.0137 9.14648 11.0762 8.75781 10.3418 7.98047C9.60742 7.19922 9.24023 6.13281 9.24023 4.78125C9.24023 3.35156 9.60938 2.24219 10.3477 1.45312C11.0859 0.660156 12.0566 0.263672 13.2598 0.263672C14.3105 0.263672 15.1641 0.574219 15.8203 1.19531C16.2109 1.5625 16.5039 2.08984 16.6992 2.77734L14.9824 3.1875C14.8809 2.74219 14.668 2.39062 14.3438 2.13281C14.0234 1.875 13.6328 1.74609 13.1719 1.74609C12.5352 1.74609 12.0176 1.97461 11.6191 2.43164C11.2246 2.88867 11.0273 3.62891 11.0273 4.65234C11.0273 5.73828 11.2227 6.51172 11.6133 6.97266C12.0039 7.43359 12.5117 7.66406 13.1367 7.66406C13.5977 7.66406 13.9941 7.51758 14.3262 7.22461C14.6582 6.93164 14.8965 6.4707 15.041 5.8418ZM18.2168 9V0.410156H21C22.0547 0.410156 22.7422 0.453125 23.0625 0.539062C23.5547 0.667969 23.9668 0.949219 24.2988 1.38281C24.6309 1.8125 24.7969 2.36914 24.7969 3.05273C24.7969 3.58008 24.7012 4.02344 24.5098 4.38281C24.3184 4.74219 24.0742 5.02539 23.7773 5.23242C23.4844 5.43555 23.1855 5.57031 22.8809 5.63672C22.4668 5.71875 21.8672 5.75977 21.082 5.75977H19.9512V9H18.2168ZM19.9512 1.86328V4.30078H20.9004C21.584 4.30078 22.041 4.25586 22.2715 4.16602C22.502 4.07617 22.6816 3.93555 22.8105 3.74414C22.9434 3.55273 23.0098 3.33008 23.0098 3.07617C23.0098 2.76367 22.918 2.50586 22.7344 2.30273C22.5508 2.09961 22.3184 1.97266 22.0371 1.92188C21.8301 1.88281 21.4141 1.86328 20.7891 1.86328H19.9512Z" fill="white"/>
</svg>
